<svg width="24" height="24" viewBox="0 0 24 24" fill="none" xmlns="http://www.w3.org/2000/svg">
<path d="M12 0C9.62663 0 7.30655 0.703788 5.33316 2.02236C3.35977 3.34094 1.8217 5.21508 0.913451 7.4078C0.00519943 9.60051 -0.232441 12.0133 0.230582 14.3411C0.693605 16.6689 1.83649 18.807 3.51472 20.4853C5.19295 22.1635 7.33115 23.3064 9.65892 23.7694C11.9867 24.2324 14.3995 23.9948 16.5922 23.0865C18.7849 22.1783 20.6591 20.6402 21.9776 18.6668C23.2962 16.6934 24 14.3734 24 12C23.9965 8.81848 22.7311 5.76829 20.4814 3.51862C18.2317 1.26894 15.1815 0.00352914 12 0ZM12 21.3333C10.154 21.3333 8.34954 20.7859 6.81468 19.7604C5.27982 18.7348 4.08355 17.2772 3.37713 15.5717C2.67071 13.8663 2.48588 11.9896 2.84601 10.1792C3.20614 8.36867 4.09505 6.70563 5.40034 5.40034C6.70563 4.09505 8.36867 3.20613 10.1792 2.846C11.9896 2.48587 13.8663 2.67071 15.5717 3.37712C17.2772 4.08354 18.7348 5.27982 19.7604 6.81468C20.7859 8.34953 21.3333 10.154 21.3333 12C21.3307 14.4745 20.3465 16.847 18.5967 18.5967C16.847 20.3465 14.4745 21.3307 12 21.3333ZM19.5556 12C19.5556 12.3536 19.4151 12.6928 19.165 12.9428C18.915 13.1929 18.5758 13.3333 18.2222 13.3333H12C11.6464 13.3333 11.3072 13.1929 11.0572 12.9428C10.8071 12.6928 10.6667 12.3536 10.6667 12V5.77778C10.6667 5.42415 10.8071 5.08502 11.0572 4.83497C11.3072 4.58492 11.6464 4.44444 12 4.44444C12.3536 4.44444 12.6928 4.58492 12.9428 4.83497C13.1929 5.08502 13.3333 5.42415 13.3333 5.77778V10.6667H18.2222C18.5758 10.6667 18.915 10.8071 19.165 11.0572C19.4151 11.3072 19.5556 11.6464 19.5556 12Z" fill="#4FBE97"/>
</svg>
