<svg width="32" height="29" viewBox="0 0 32 29" fill="none" xmlns="http://www.w3.org/2000/svg">
<path d="M16.2972 28.4195L16.2942 28.4212C16.2021 28.4736 16.1011 28.5 16 28.5C15.8989 28.5 15.7979 28.4736 15.7058 28.4212L15.7028 28.4195C15.4046 28.2525 11.5775 26.0463 7.83225 22.5776C4.06524 19.0888 0.500119 14.4322 0.5 9.36705C0.502585 7.00746 1.39032 4.75054 2.96042 3.09009C4.52961 1.4306 6.651 0.502714 8.85744 0.5C11.6497 0.500088 14.0787 1.76673 15.5923 3.89869L16 4.47293L16.4077 3.89869C17.9213 1.76673 20.3503 0.500089 23.1426 0.5C25.349 0.502714 27.4704 1.4306 29.0396 3.09009C30.6097 4.7506 31.4975 7.00764 31.5 9.36732C31.4998 14.4324 27.9347 19.0889 24.1678 22.5776C20.4225 26.0463 16.5954 28.2525 16.2972 28.4195Z" fill="white" stroke="#5C5050"/>
</svg>
