<svg width="24" height="21" viewBox="0 0 24 21" fill="none" xmlns="http://www.w3.org/2000/svg">
<path d="M10.3636 15.8561L14.7055 13.4379C15.4364 13.0348 15.4364 12.0061 14.7055 11.5924L10.3636 9.17424C9.63273 8.77121 8.72727 9.29091 8.72727 10.097V14.9227C8.72727 15.7394 9.63273 16.2591 10.3636 15.8561ZM21.8182 4.0303H13.5382L16.7455 0.912121C16.9636 0.7 16.9636 0.371212 16.7455 0.159091C16.5273 -0.0530303 16.1891 -0.0530303 15.9709 0.159091L12 4.0197L8.02909 0.159091C7.81091 -0.0530303 7.47273 -0.0530303 7.25455 0.159091C7.03636 0.371212 7.03636 0.7 7.25455 0.912121L10.4618 4.0303H2.18182C1.60316 4.0303 1.04821 4.25379 0.63904 4.65159C0.22987 5.0494 0 5.58894 0 6.15152V18.8788C0 20.0455 0.981818 21 2.18182 21H21.8182C23.0182 21 24 20.0455 24 18.8788V6.15152C24 5.58894 23.7701 5.0494 23.361 4.65159C22.9518 4.25379 22.3968 4.0303 21.8182 4.0303ZM20.7273 18.8788H3.27273C2.67273 18.8788 2.18182 18.4015 2.18182 17.8182V7.21212C2.18182 6.62879 2.67273 6.15152 3.27273 6.15152H20.7273C21.3273 6.15152 21.8182 6.62879 21.8182 7.21212V17.8182C21.8182 18.4015 21.3273 18.8788 20.7273 18.8788Z" fill="#4FBE97"/>
</svg>
