<svg width="48" height="56" viewBox="0 0 48 56" fill="none" xmlns="http://www.w3.org/2000/svg">
<path d="M46 4.66667V51.3333C46 52.0823 45.7205 52.7758 45.2611 53.2672C44.8058 53.754 44.2183 54 43.6364 54H32.7273C32.1454 54 31.5578 53.754 31.1026 53.2672C30.6431 52.7758 30.3636 52.0823 30.3636 51.3333V4.66667C30.3636 3.91771 30.6431 3.22421 31.1026 2.73282C31.5578 2.24598 32.1454 2 32.7273 2H43.6364C44.2183 2 44.8058 2.24598 45.2611 2.73282C45.7205 3.22421 46 3.91771 46 4.66667ZM4.36364 2H15.2727C15.8546 2 16.4422 2.24598 16.8974 2.73282C17.3569 3.22421 17.6364 3.91771 17.6364 4.66667V51.3333C17.6364 52.0823 17.3569 52.7758 16.8974 53.2672C16.4422 53.754 15.8546 54 15.2727 54H4.36364C3.78175 54 3.19416 53.754 2.73893 53.2672C2.27945 52.7758 2 52.0823 2 51.3333V4.66667C2 3.91771 2.27945 3.22421 2.73893 2.73282C3.19416 2.24598 3.78174 2 4.36364 2Z" stroke="white" stroke-width="4"/>
</svg>
