<svg width="48" height="56" viewBox="0 0 48 56" fill="none" xmlns="http://www.w3.org/2000/svg">
<path d="M42.9496 22.3021L42.9581 22.3072L42.9666 22.3122C43.8498 22.8328 44.6155 23.6263 45.16 24.6307C45.705 25.636 46 26.8016 46 28.0008C46 29.1999 45.705 30.3656 45.16 31.3708C44.6155 32.3753 43.8498 33.1688 42.9666 33.6894L42.9581 33.6943L42.9497 33.6994L10.5815 53.207L10.5814 53.207C6.94844 55.3968 2 52.7133 2 47.5111V8.49324C2 3.28606 6.9481 0.604382 10.5814 2.79175C10.5816 2.79189 10.5818 2.79202 10.5821 2.79216L42.9496 22.3021Z" stroke="white" stroke-width="4"/>
</svg>
