<svg width="42" height="42" viewBox="0 0 42 42" fill="none" xmlns="http://www.w3.org/2000/svg">
<path fill-rule="evenodd" clip-rule="evenodd" d="M20.8333 0C9.32708 0 0 9.32708 0 20.8333C0 32.3396 9.32708 41.6667 20.8333 41.6667C32.3396 41.6667 41.6667 32.3396 41.6667 20.8333C41.6667 9.32708 32.3396 0 20.8333 0ZM13.5417 15.625C13.5417 14.6674 13.7303 13.7193 14.0967 12.8346C14.4632 11.9499 15.0003 11.1461 15.6773 10.469C16.3544 9.79192 17.1583 9.25482 18.0429 8.88838C18.9276 8.52194 19.8758 8.33333 20.8333 8.33333C21.7909 8.33333 22.7391 8.52194 23.6237 8.88838C24.5084 9.25482 25.3122 9.79192 25.9893 10.469C26.6664 11.1461 27.2035 11.9499 27.57 12.8346C27.9364 13.7193 28.125 14.6674 28.125 15.625C28.125 17.5589 27.3568 19.4135 25.9893 20.781C24.6219 22.1484 22.7672 22.9167 20.8333 22.9167C18.8995 22.9167 17.0448 22.1484 15.6773 20.781C14.3099 19.4135 13.5417 17.5589 13.5417 15.625ZM33.8708 31.2167C32.3113 33.1784 30.3288 34.7624 28.0712 35.8504C25.8136 36.9384 23.3394 37.5023 20.8333 37.5C18.3273 37.5023 15.853 36.9384 13.5955 35.8504C11.3379 34.7624 9.35534 33.1784 7.79583 31.2167C11.1729 28.7937 15.7812 27.0833 20.8333 27.0833C25.8854 27.0833 30.4937 28.7937 33.8708 31.2167Z" fill="#5EBB95"/>
</svg>
