<svg width="60" height="61" viewBox="0 0 60 61" fill="#5EBB95" xmlns="http://www.w3.org/2000/svg">
<path d="M39.375 30.3584C39.375 32.8448 38.3873 35.2294 36.6291 36.9875C34.871 38.7457 32.4864 39.7334 30 39.7334C27.5136 39.7334 25.129 38.7457 23.3709 36.9875C21.6127 35.2294 20.625 32.8448 20.625 30.3584C20.625 29.824 20.6812 29.3021 20.7781 28.7959H17.5V41.2865C17.5 42.1553 18.2031 42.8584 19.0719 42.8584H40.9312C41.3476 42.8576 41.7466 42.6916 42.0407 42.3969C42.3348 42.1022 42.5 41.7029 42.5 41.2865V28.7959H39.2219C39.3187 29.3021 39.375 29.824 39.375 30.3584ZM30 36.6084C30.821 36.6082 31.6339 36.4463 32.3923 36.1319C33.1506 35.8176 33.8397 35.3569 34.4201 34.7763C35.0004 34.1956 35.4607 33.5063 35.7747 32.7478C36.0887 31.9892 36.2502 31.1762 36.25 30.3553C36.2498 29.5343 36.0879 28.7214 35.7735 27.963C35.4592 27.2046 34.9985 26.5156 34.4179 25.9352C33.8372 25.3548 33.1479 24.8945 32.3894 24.5805C31.6308 24.2666 30.8178 24.1051 29.9969 24.1053C28.3389 24.1057 26.7489 24.7647 25.5768 25.9374C24.4047 27.1101 23.7465 28.7004 23.7469 30.3584C23.7473 32.0164 24.4063 33.6064 25.579 34.7785C26.7517 35.9506 28.342 36.6088 30 36.6084ZM37.5 23.7959H41.2469C41.4958 23.7959 41.7346 23.6972 41.9109 23.5215C42.0872 23.3458 42.1867 23.1073 42.1875 22.8584V19.1115C42.1875 18.8621 42.0884 18.6228 41.912 18.4464C41.7356 18.27 41.4963 18.1709 41.2469 18.1709H37.5C37.2505 18.1709 37.0113 18.27 36.8349 18.4464C36.6585 18.6228 36.5594 18.8621 36.5594 19.1115V22.8584C36.5625 23.374 36.9844 23.7959 37.5 23.7959ZM30 0.358398C22.0435 0.358398 14.4129 3.5191 8.7868 9.14519C3.1607 14.7713 0 22.4019 0 30.3584C0 38.3149 3.1607 45.9455 8.7868 51.5716C14.4129 57.1977 22.0435 60.3584 30 60.3584C33.9397 60.3584 37.8407 59.5824 41.4805 58.0748C45.1203 56.5671 48.4274 54.3574 51.2132 51.5716C53.999 48.7858 56.2087 45.4787 57.7164 41.8389C59.224 38.1991 60 34.2981 60 30.3584C60 26.4187 59.224 22.5177 57.7164 18.8779C56.2087 15.2381 53.999 11.931 51.2132 9.14519C48.4274 6.35944 45.1203 4.14965 41.4805 2.64201C37.8407 1.13437 33.9397 0.358398 30 0.358398ZM45.625 42.5115C45.625 44.4209 44.0625 45.9834 42.1531 45.9834H17.8469C15.9375 45.9834 14.375 44.4209 14.375 42.5115V18.2053C14.375 16.2959 15.9375 14.7334 17.8469 14.7334H42.1531C44.0625 14.7334 45.625 16.2959 45.625 18.2053V42.5115Z" fill="#5EBB95"/>
</svg>
