<svg width="60" height="61" viewBox="0 0 60 61" fill="#5EBB95" xmlns="http://www.w3.org/2000/svg">
<path d="M30 0.358398C13.4312 0.358398 0 13.7896 0 30.3584C0 46.9271 13.4312 60.3584 30 60.3584C46.5687 60.3584 60 46.9271 60 30.3584C60 13.7896 46.5687 0.358398 30 0.358398ZM22.6562 42.7928H16.5812V23.2428H22.6562V42.7928ZM19.5812 20.8428C17.6625 20.8428 16.4219 19.4834 16.4219 17.8021C16.4219 16.0865 17.7 14.7678 19.6594 14.7678C21.6187 14.7678 22.8187 16.0865 22.8562 17.8021C22.8562 19.4834 21.6187 20.8428 19.5812 20.8428ZM44.8437 42.7928H38.7687V31.9584C38.7687 29.4365 37.8875 27.724 35.6906 27.724C34.0125 27.724 33.0156 28.8834 32.575 29.999C32.4125 30.3959 32.3719 30.9584 32.3719 31.5178V42.7896H26.2937V29.4771C26.2937 27.0365 26.2156 24.9959 26.1344 23.2396H31.4125L31.6906 25.9553H31.8125C32.6125 24.6803 34.5719 22.799 37.85 22.799C41.8469 22.799 44.8437 25.4771 44.8437 31.2334V42.7928Z" fill="#5EBB95"/>
</svg>
