<svg width="60" height="61" viewBox="0 0 60 61" fill="#5EBB95" xmlns="http://www.w3.org/2000/svg">
<path d="M30 0.358398C13.433 0.358398 0 13.7914 0 30.3584C0 46.9254 13.433 60.3584 30 60.3584C46.567 60.3584 60 46.9254 60 30.3584C60 13.7914 46.567 0.358398 30 0.358398ZM41.183 42.787C38.4643 45.2914 34.7545 46.7646 30.3281 46.7646C23.9196 46.7646 18.375 43.0883 15.6763 37.7312C14.5647 35.5146 13.9286 33.0102 13.9286 30.3584C13.9286 27.7066 14.5647 25.2021 15.6763 22.9856C18.375 17.6218 23.9196 13.9455 30.3281 13.9455C34.7478 13.9455 38.4576 15.5727 41.3036 18.2178L36.6027 22.9254C34.9018 21.2981 32.7388 20.4745 30.3348 20.4745C26.0625 20.4745 22.4464 23.3606 21.154 27.2379C20.8259 28.2222 20.6384 29.2736 20.6384 30.3584C20.6384 31.4432 20.8259 32.4946 21.154 33.4789C22.4464 37.3562 26.0625 40.2423 30.3281 40.2423C32.5379 40.2423 34.4129 39.6597 35.8795 38.6754C37.6205 37.5102 38.7723 35.7758 39.154 33.72H30.3281V27.3718H45.7768C45.971 28.4499 46.0714 29.5682 46.0714 30.7267C46.0714 35.7289 44.2835 39.9276 41.183 42.787Z" fill="#5EBB95"/>
</svg>
